<?xml version="1.0" encoding="UTF-8"?>
<svg width="574px" height="190px" viewBox="0 0 574 190" version="1.1" xmlns="http://www.w3.org/2000/svg" xmlns:xlink="http://www.w3.org/1999/xlink">
    <!-- Generator: Sketch 52.3 (67297) - http://www.bohemiancoding.com/sketch -->
    <title>Group</title>
    <desc>Created with Sketch.</desc>
    <g id="Page-1" stroke="none" stroke-width="1" fill="none" fill-rule="evenodd">
        <g id="landing-page" transform="translate(-961.000000, -197.000000)" fill="#231F20">
            <g id="logo" transform="translate(961.000000, 122.000000)">
                <g id="Group" transform="translate(0.000000, 75.000000)">
                    <path d="M176.965551,18.594382 C161.210781,18.594382 149.36803,30.8127341 149.36803,46.5749064 C149.36803,62.3370787 161.210781,74.6764045 176.965551,74.6764045 C187.101239,74.6764045 195.892615,69.4247191 200.658166,60.6220974 L214.215093,68.6846442 C206.64,81.6359551 192.478488,90.0685393 176.965551,90.0685393 C152.661239,90.0685393 133.371425,70.7625468 133.371425,46.5749064 C133.371425,22.3872659 152.668352,3.08127341 176.965551,3.08127341 C192.599405,3.08127341 206.64,11.3928839 214.215093,24.4651685 L200.658166,32.5277154 C195.899727,23.7250936 187.101239,18.594382 176.965551,18.594382 Z" id="Path"></path>
                    <path d="M278.571375,52.6805243 L278.571375,88.1116105 L263.307385,88.1116105 L263.307385,55.8543071 C263.307385,45.9558052 258.179083,39.8501873 250.73202,39.8501873 C242.552342,39.8501873 236.812342,47.3007491 236.812342,56.0962547 L236.812342,88.1044944 L221.669269,88.1044944 L221.669269,2.59026217 L236.812342,2.59026217 L236.812342,34.7265918 C240.966196,28.9838951 247.680644,25.3191011 255.497571,25.3191011 C269.289219,25.311985 278.571375,37.0393258 278.571375,52.6805243 Z" id="Path"></path>
                    <path d="M289.681512,9.54981273 C289.681512,4.29812734 294.0772,0.384269663 299.326419,0.384269663 C304.454721,0.384269663 308.729492,4.29101124 308.729492,9.54981273 C308.729492,14.8086142 304.454721,18.7153558 299.326419,18.7153558 C294.0772,18.7153558 289.681512,14.8086142 289.681512,9.54981273 Z M307.022429,27.0198502 L307.022429,88.1116105 L291.388575,88.1116105 L291.388575,27.0198502 L307.022429,27.0198502 Z" id="Shape" fill-rule="nonzero"></path>
                    <path d="M376.016233,72.1074906 C370.767014,82.6108614 360.019628,89.6985019 347.56518,89.6985019 C329.612565,89.6985019 315.813804,75.4022472 315.813804,57.5621723 C315.813804,39.6011236 329.612565,25.3048689 347.56518,25.3048689 C359.898711,25.3048689 370.646097,32.3925094 375.895316,42.7749064 L362.096555,48.8805243 C359.166097,43.3797753 353.667931,40.0850187 347.56518,40.0850187 C338.162107,40.0850187 331.326741,47.6565543 331.326741,57.5550562 C331.326741,67.3325843 338.162107,74.9041199 347.56518,74.9041199 C353.667931,74.9041199 359.166097,71.4812734 362.096555,65.9876404 L376.016233,72.1074906 Z" id="Path"></path>
                    <path d="M432.434672,51.093633 L432.434672,88.1116105 L417.533432,88.1116105 L417.533432,81.02397 C413.016828,85.9127341 405.932515,89.5775281 398.115589,89.6985019 C387.738067,89.6985019 378.576828,82.852809 378.576828,71.1254682 C378.576828,60.0101124 386.877423,53.6554307 399.218067,51.2074906 L417.170682,47.7846442 C415.947286,42.6539326 412.042379,38.7400749 406.181462,38.7400749 C400.320545,38.7400749 394.822379,42.4048689 391.52917,47.0445693 L380.291004,38.8610487 C386.031004,30.7985019 396.166691,25.4187266 406.181462,25.4187266 C421.196506,25.4329588 432.434672,35.8224719 432.434672,51.093633 Z M417.533432,62.5790262 L417.533432,59.7681648 L401.899579,62.8209738 C396.650359,64.0449438 393.470954,66.7277154 393.470954,70.2715356 C393.470954,73.9363296 396.771276,76.747191 402.141413,76.747191 C410.207286,76.747191 417.533432,70.641573 417.533432,62.5790262 Z" id="Shape" fill-rule="nonzero"></path>
                    <path d="M501.065725,27.0198502 L501.065725,83.8348315 C501.065725,102.158801 487.387881,114.377154 469.435266,114.377154 C459.057745,114.377154 449.405725,109.609363 442.570359,102.037828 L453.189715,92.5093633 C457.585403,97.3981273 463.204486,100.57191 469.428154,100.57191 C479.442924,100.57191 485.794622,94.0962547 485.794622,83.5857678 L485.794622,80.0419476 C482.131549,85.1726592 475.900768,88.958427 467.600173,88.958427 C452.336183,88.958427 440.123569,76.2490637 440.002652,57.5621723 C440.002652,39.1101124 451.973432,25.4258427 467.72109,25.4258427 C476.021685,25.4258427 482.131549,29.2116105 485.794622,34.470412 L485.794622,27.0198502 L501.065725,27.0198502 Z M486.164486,57.1992509 C486.164486,46.9378277 479.450037,40.0921348 470.651549,40.0921348 C461.860173,40.2131086 455.508476,47.0588015 455.508476,57.1992509 C455.508476,67.3397004 461.98109,74.306367 470.893383,74.306367 C479.450037,74.306367 486.164486,67.7097378 486.164486,57.1992509 Z" id="Shape" fill-rule="nonzero"></path>
                    <path d="M509.117373,57.5692884 C509.117373,39.7292135 523.406914,25.4329588 541.359529,25.4329588 C559.07031,25.4329588 573.352739,39.7292135 573.352739,57.5692884 C573.352739,75.4093633 559.063197,89.705618 541.359529,89.705618 C523.406914,89.6985019 509.117373,75.4022472 509.117373,57.5692884 Z M557.846914,57.5692884 C557.846914,47.6707865 550.641685,40.2202247 541.359529,40.2202247 C531.835539,40.2202247 524.63031,47.6707865 524.63031,57.5692884 C524.63031,67.4677903 531.835539,74.9183521 541.359529,74.9183521 C550.520768,74.9183521 557.846914,67.4606742 557.846914,57.5692884 Z" id="Shape" fill-rule="nonzero"></path>
                    <path d="M43.9853284,117.878277 C28.2305576,117.878277 16.3878067,130.096629 16.3878067,145.858801 C16.3878067,161.620974 28.2305576,173.9603 43.9853284,173.9603 C54.1210161,173.9603 62.9123916,168.708614 67.677943,159.905993 L81.2348699,167.968539 C73.659777,180.91985 59.4982652,189.352434 43.9853284,189.352434 C19.6810161,189.352434 0.391201983,170.046442 0.391201983,145.858801 C0.391201983,121.671161 19.6881289,102.365169 43.9853284,102.365169 C59.6191822,102.365169 73.659777,110.669663 81.2348699,123.749064 L67.677943,131.81161 C62.9123916,123.008989 54.1210161,117.878277 43.9853284,117.878277 Z" id="Path"></path>
                    <path d="M145.58404,151.964419 L145.58404,187.395506 L130.32005,187.395506 L130.32005,155.138202 C130.32005,145.2397 125.191747,139.134082 117.744684,139.134082 C109.565006,139.134082 103.825006,146.584644 103.825006,155.38015 L103.825006,187.38839 L88.6819331,187.38839 L88.6819331,101.874157 L103.825006,101.874157 L103.825006,134.010487 C107.97886,128.26779 114.693309,124.602996 122.510235,124.602996 C136.301884,124.59588 145.58404,136.330337 145.58404,151.964419 Z" id="Path"></path>
                    <path d="M206.156332,150.377528 L206.156332,187.395506 L191.255093,187.395506 L191.255093,180.307865 C186.738488,185.196629 179.654176,188.861423 171.837249,188.982397 C161.459727,188.982397 152.298488,182.136704 152.298488,170.409363 C152.298488,159.294007 160.599083,152.939326 172.939727,150.491386 L190.892342,147.068539 C189.668947,141.937828 185.76404,138.02397 179.903123,138.02397 C174.042206,138.02397 168.54404,141.688764 165.25083,146.328464 L154.012664,138.144944 C159.752664,130.082397 169.888352,124.702622 179.903123,124.702622 C194.918166,124.716854 206.156332,135.106367 206.156332,150.377528 Z M191.255093,161.862921 L191.255093,159.05206 L175.621239,162.104869 C170.37202,163.328839 167.192615,166.01161 167.192615,169.555431 C167.192615,173.220225 170.492937,176.031086 175.863073,176.031086 C183.928947,176.038202 191.255093,169.925468 191.255093,161.862921 Z" id="Shape" fill-rule="nonzero"></path>
                    <path d="M251.585551,124.965918 L251.585551,139.874157 C237.907708,139.874157 232.046791,146.59176 232.046791,155.387266 L232.046791,187.395506 L216.903717,187.395506 L216.903717,126.310861 L232.046791,126.310861 L232.046791,134.010487 C236.193532,128.509738 242.915093,124.965918 251.585551,124.965918 Z" id="Path"></path>
                    <path d="M307.38518,150.377528 L307.38518,187.395506 L292.483941,187.395506 L292.483941,180.307865 C287.967336,185.196629 280.883024,188.861423 273.066097,188.982397 C262.688575,188.982397 253.527336,182.136704 253.527336,170.409363 C253.527336,159.294007 261.827931,152.939326 274.168575,150.491386 L292.12119,147.068539 C290.897794,141.937828 286.992887,138.02397 281.13197,138.02397 C275.271053,138.02397 269.772887,141.688764 266.479678,146.328464 L255.241512,138.144944 C260.981512,130.082397 271.1172,124.702622 281.13197,124.702622 C296.154126,124.716854 307.38518,135.106367 307.38518,150.377528 Z M292.491053,161.862921 L292.491053,159.05206 L276.8572,162.104869 C271.60798,163.328839 268.428575,166.01161 268.428575,169.555431 C268.428575,173.220225 271.728897,176.031086 277.099033,176.031086 C285.164907,176.038202 292.491053,169.925468 292.491053,161.862921 Z" id="Shape" fill-rule="nonzero"></path>
                    <path d="M373.697472,171.391386 C368.448253,181.894757 357.700867,188.982397 345.246419,188.982397 C327.293804,188.982397 313.495043,174.686142 313.495043,156.846067 C313.495043,138.885019 327.293804,124.588764 345.246419,124.588764 C357.57995,124.588764 368.327336,131.676404 373.576555,142.058801 L359.777794,148.164419 C356.847336,142.66367 351.34917,139.368914 345.246419,139.368914 C335.843346,139.368914 329.00798,146.940449 329.00798,156.838951 C329.00798,166.616479 335.843346,174.188015 345.246419,174.188015 C351.34917,174.188015 356.847336,170.765169 359.777794,165.271536 L373.697472,171.391386 Z" id="Path"></path>
                    <path d="M401.657745,139.995131 L401.657745,165.776779 C401.657745,170.786517 403.855589,173.106367 408.372193,173.106367 L415.940173,173.106367 L415.940173,187.402622 L406.04632,187.402622 C392.859257,187.402622 386.386642,181.04794 386.386642,167.733708 L386.386642,140.002247 L375.397423,140.002247 L375.397423,126.310861 L386.386642,126.310861 L386.386642,111.160674 L401.650632,106.392884 L401.650632,126.310861 L415.940173,126.310861 L415.940173,139.995131 L401.657745,139.995131 Z" id="Path"></path>
                    <path d="M479.32912,162.958801 L436.339579,162.958801 C438.046642,170.658427 443.174944,175.05618 450.991871,175.05618 C457.834349,175.05618 463.567237,171.633333 466.255861,166.623596 L478.226642,173.462172 C473.09834,182.869663 462.10912,188.982397 450.750037,188.982397 C433.167286,188.982397 420.833755,174.92809 420.833755,156.846067 C420.833755,138.764045 433.046369,124.709738 450.878067,124.709738 C465.288525,124.709738 477.50114,133.875281 479.45715,151.70824 C479.812788,155.017228 479.812788,158.810112 479.32912,162.958801 Z M436.339579,150.989513 L464.306964,150.989513 C463.695266,142.926966 457.471599,138.650187 450.387286,138.650187 C442.570359,138.650187 437.804808,143.410861 436.339579,150.989513 Z" id="Shape" fill-rule="nonzero"></path>
                    <path d="M522.553383,124.965918 L522.553383,139.874157 C508.875539,139.874157 503.014622,146.59176 503.014622,155.387266 L503.014622,187.395506 L487.871549,187.395506 L487.871549,126.310861 L503.014622,126.310861 L503.014622,134.010487 C507.168476,128.509738 513.882924,124.965918 522.553383,124.965918 Z" id="Path"></path>
                    <path d="M548.443841,189.110487 C535.377695,189.110487 525.732788,182.14382 523.406914,171.640449 L536.352144,167.733708 C537.575539,172.622472 542.092144,176.038202 548.927509,176.038202 C554.297646,176.038202 558.700446,173.839326 558.700446,170.665543 C558.700446,167.121723 553.693061,165.292884 546.608748,163.456929 C538.180124,161.258052 525.967509,157.593258 525.967509,144.27191 C525.967509,132.053558 536.465948,124.72397 549.169343,124.72397 C561.502875,124.72397 570.415167,131.690637 572.613011,142.194007 L560.158563,146.100749 C558.935167,141.332959 554.909343,137.668165 549.048426,137.668165 C544.410905,137.668165 540.619802,139.988015 540.619802,143.289888 C540.619802,146.59176 544.524709,148.178652 550.876406,149.886517 C558.572416,151.843446 573.345626,155.138202 573.345626,169.313483 C573.352739,181.780899 561.879851,189.110487 548.443841,189.110487 Z" id="Path"></path>
                </g>
            </g>
        </g>
    </g>
</svg>