<?xml version="1.0" encoding="utf-8"?>
<!-- Generator: Adobe Illustrator 16.0.0, SVG Export Plug-In . SVG Version: 6.00 Build 0)  -->
<!DOCTYPE svg PUBLIC "-//W3C//DTD SVG 1.1//EN" "http://www.w3.org/Graphics/SVG/1.1/DTD/svg11.dtd">
<svg version="1.1" id="Layer_1" xmlns="http://www.w3.org/2000/svg" xmlns:xlink="http://www.w3.org/1999/xlink" x="0px" y="0px"
	 width="272px" height="201.019px" viewBox="0 228.209 272 201.019" enable-background="new 0 228.209 272 201.019"
	 xml:space="preserve">
<title>Asset 1</title>
<g>
	<polygon points="178.873,376.275 164.606,376.275 178.873,393.737 	"/>
	<path d="M161.34,377.766c0.392,0,0.709-0.318,0.709-0.709c0-0.393-0.317-0.71-0.709-0.71h-5.253
		c-12.563,0-22.785,3.194-22.785,21.152c0,17.958,12.28,21.152,23.637,21.152h4.401c0.392,0,0.709-0.317,0.709-0.709
		c0-0.393-0.317-0.71-0.709-0.71c-5.537-0.284-6.743-2.342-6.743-19.733C154.597,380.109,155.804,378.121,161.34,377.766z"/>
	<path d="M167.729,413.683c0,2.129-1.065,3.336-2.342,3.478l0,0c-0.392,0-0.71,0.318-0.71,0.71c0,0.392,0.318,0.71,0.71,0.71l0,0
		c13.345,0,21.862-4.046,21.862-19.804h-19.52L167.729,413.683L167.729,413.683z"/>
	<rect x="183.557" y="229.699" width="21.507" height="42.376"/>
	<polygon points="221.391,229.699 207.123,229.699 221.391,247.161 	"/>
	<polygon points="167.231,229.699 167.231,247.161 181.499,229.699 	"/>
	<polygon points="74.602,228.209 46.28,272.075 103.774,272.075 	"/>
	<polygon points="132.593,272.075 132.593,252.059 132.593,229.699 111.085,229.699 111.085,272.075 	"/>
	<path d="M135.787,250.639L135.787,250.639c-0.366,0.057-0.653,0.344-0.71,0.709c0,0.392,0.318,0.71,0.71,0.71l0,0
		c2.342,0,4.046,3.479,4.046,7.311c0,3.833-0.852,4.401-0.852,6.53c0,5.465,3.833,7.808,11.641,7.808
		c7.808,0,10.86-3.407,11.711-4.188c0.852-0.781,0.923-1.207,0.426-1.774s-1.207,0.568-2.555,0.568c-1.349,0-1.278-2.13-1.278-3.904
		c0-10.434-10.86-11.357-13.983-11.925c-0.639-0.142-0.781-0.426-0.781-0.709c0-0.284,0.142-0.568,0.781-0.568
		c5.678,0,14.409-2.13,14.409-10.434c0-10.435-11.215-11.144-23.566-11.144l0,0c-0.377,0.033-0.676,0.332-0.709,0.709
		c0,0.392,0.317,0.71,0.709,0.71h0.071c2.697,0,4.117,2.059,4.117,9.725C139.975,248.438,139.123,250.639,135.787,250.639z"/>
	<polygon points="106.401,305.649 106.401,321.691 122.017,321.691 	"/>
	<polygon points="136.071,294.577 136.071,279.315 121.165,279.315 	"/>
	<path d="M124.288,316.864c1.562,1.491,0.497,4.756,0.497,4.756h1.916c6.748-0.074,12.232-5.464,12.422-12.209
		c0-4.968-3.265-9.015-6.956-12.706c-3.691-3.691-10.719-10.221-10.719-10.221s-4.188-3.691-3.833-7.24
		c-7.169,0-13.486,6.033-13.486,12.066c0.148,3.884,1.773,7.565,4.542,10.293L124.288,316.864z"/>
	<rect x="145.228" y="279.315" width="21.436" height="42.375"/>
	<rect x="59.27" y="279.315" width="22.288" height="42.375"/>
	<polygon points="90.146,292.66 82.764,300.468 90.146,308.347 	"/>
	<polygon points="96.748,279.315 82.48,279.315 96.748,296.777 	"/>
	<polygon points="96.748,321.691 96.748,304.159 82.48,321.691 	"/>
	<polygon points="0,321.691 21.507,321.691 21.507,301.674 21.507,279.315 0,279.315 	"/>
	<path d="M30.38,321.691c12.564,0,22.785-3.194,22.785-21.152c0-17.958-12.28-21.152-23.637-21.152h-4.401
		c-0.392,0-0.71,0.317-0.71,0.709s0.318,0.71,0.71,0.71c5.537,0.284,6.743,2.342,6.743,19.732c0,17.391-1.136,19.378-6.743,19.733
		c-0.392,0-0.71,0.317-0.71,0.709s0.318,0.709,0.71,0.709L30.38,321.691L30.38,321.691z"/>
	<rect x="174.969" y="328.292" width="21.436" height="42.375"/>
	<polygon points="166.664,370.668 166.664,328.292 145.228,328.292 145.228,346.463 140.33,346.463 140.33,328.292 118.894,328.292 
		118.894,370.668 140.33,370.668 140.33,349.019 145.228,349.019 145.228,370.668 	"/>
	<path d="M219.19,375.495c-14.054,0-25.482,7.524-25.482,22.288c0,14.765,11.428,22.289,25.482,22.289
		c14.054,0,25.482-7.524,25.482-22.289C244.672,383.019,233.244,375.495,219.19,375.495z"/>
	<polygon points="109.737,386.781 104.839,370.668 110.944,370.668 110.944,354.059 96.676,370.668 102.071,370.668 97.173,386.781 
		76.092,381.812 90.927,397.641 76.021,413.399 97.102,408.501 103.349,429.228 109.667,408.501 130.748,413.47 115.983,397.641 
		130.818,381.954 	"/>
	<polygon points="110.944,328.292 96.676,328.292 110.944,345.754 	"/>
	<path d="M93.412,370.668c0.392,0,0.709-0.317,0.709-0.709s-0.317-0.71-0.709-0.71c-5.537-0.284-6.744-2.342-6.744-19.732
		s1.136-19.378,6.744-19.733c0.392,0,0.709-0.317,0.709-0.71c0-0.392-0.317-0.709-0.709-0.709h-5.253
		c-12.563,0-22.785,3.194-22.785,21.152c0,17.958,12.279,21.152,23.637,21.152H93.412L93.412,370.668z"/>
	<polygon points="70.413,393.95 70.413,376.489 56.146,376.489 	"/>
	<polygon points="70.413,418.793 70.413,402.184 56.146,418.793 	"/>
	<path d="M52.881,377.979c0.392,0,0.71-0.318,0.71-0.71s-0.318-0.71-0.71-0.71h-5.252c-12.564,0-22.785,3.194-22.785,21.152
		c0,17.958,12.28,21.153,23.637,21.153h4.401c0.392,0,0.71-0.318,0.71-0.709c0-0.393-0.318-0.71-0.71-0.71
		c-5.536-0.284-6.743-2.342-6.743-19.733C46.138,380.321,47.345,378.263,52.881,377.979z"/>
	<polygon points="234.025,321.691 249.783,321.691 234.025,302.597 	"/>
	<polygon points="272,304.443 251.416,279.315 233.954,279.315 234.025,294.009 256.526,321.691 272,321.691 	"/>
	<polygon points="272,279.315 257.732,279.315 272,296.777 	"/>
	<polygon points="220.042,279.315 205.774,279.315 220.042,296.777 	"/>
	<path d="M202.58,280.806c0.392,0,0.71-0.317,0.71-0.709s-0.317-0.71-0.71-0.71h-5.252c-12.564,0-22.786,3.194-22.786,21.153
		c0,17.958,12.28,21.152,23.637,21.152h4.401c0.392,0,0.71-0.317,0.71-0.71c0-0.392-0.317-0.709-0.71-0.709
		c-5.536-0.284-6.743-2.343-6.743-19.733C195.837,283.148,196.973,281.09,202.58,280.806z"/>
	<path d="M206.626,321.691L206.626,321.691c13.345,0,21.862-4.046,21.862-19.804h-19.52v14.764c0,2.13-1.064,3.336-2.343,3.478l0,0
		c-0.392,0-0.709,0.318-0.709,0.71c-0.041,0.429,0.274,0.811,0.703,0.851C206.622,321.69,206.624,321.691,206.626,321.691
		L206.626,321.691z"/>
</g>
</svg>
