<?xml version="1.0" encoding="utf-8"?>
<!-- Generator: Adobe Illustrator 16.0.0, SVG Export Plug-In . SVG Version: 6.00 Build 0)  -->
<!DOCTYPE svg PUBLIC "-//W3C//DTD SVG 1.1//EN" "http://www.w3.org/Graphics/SVG/1.1/DTD/svg11.dtd">
<svg version="1.1" id="Layer_1" xmlns="http://www.w3.org/2000/svg" xmlns:xlink="http://www.w3.org/1999/xlink" x="0px" y="0px"
	 width="266px" height="90.402px" viewBox="0 0 266 90.402" enable-background="new 0 0 266 90.402" xml:space="preserve">
<g>
	<path d="M17.24,80.994v-1.963H9.812v11.277h2.203v-4.579h4.451v-1.962h-4.451v-2.773H17.24z M27.233,84.667
		c0-1.947,0.017-3.357-1.122-4.498c-0.792-0.791-1.76-1.232-3.04-1.232c-1.284,0-2.266,0.441-3.059,1.232
		c-1.14,1.141-1.107,2.551-1.107,4.498c0,1.949-0.033,3.357,1.107,4.5c0.793,0.792,1.775,1.234,3.059,1.234
		c1.28,0,2.248-0.442,3.04-1.234C27.25,88.025,27.233,86.617,27.233,84.667 M25.034,84.667c0,2.171-0.128,2.694-0.554,3.167
		c-0.318,0.368-0.807,0.604-1.409,0.604c-0.604,0-1.111-0.235-1.429-0.604c-0.426-0.473-0.537-0.996-0.537-3.167
		c0-2.17,0.111-2.692,0.537-3.169c0.318-0.364,0.825-0.6,1.429-0.6c0.602,0,1.091,0.235,1.409,0.6
		C24.905,81.975,25.034,82.498,25.034,84.667 M37.735,86.442v-7.411h-2.186v7.333c0,1.297-0.775,2.074-1.963,2.074
		c-1.188,0-1.948-0.777-1.948-2.074v-7.333h-2.202v7.411c0,2.393,1.838,3.96,4.15,3.96C35.898,90.402,37.735,88.834,37.735,86.442
		 M49.268,90.308V79.031h-2.203v6.906l-4.468-6.906h-1.962v11.277h2.202v-6.923l4.467,6.923H49.268z M60.526,84.621
		c0-1.694,0.128-3.245-1.139-4.514c-0.746-0.744-1.807-1.076-2.978-1.076h-4.071v11.277h4.071c1.171,0,2.232-0.332,2.978-1.078
		C60.655,87.963,60.526,86.318,60.526,84.621 M58.326,84.621c0,1.71-0.062,2.517-0.475,3.025c-0.381,0.46-0.887,0.697-1.647,0.697
		h-1.662v-7.35h1.662c0.761,0,1.266,0.235,1.647,0.699C58.264,82.198,58.326,82.91,58.326,84.621 M71.694,90.308l-4.117-11.277
		h-1.727l-4.104,11.277h2.298l0.68-1.997h4.008l0.664,1.997H71.694z M68.145,86.459h-2.804l1.428-4.104L68.145,86.459z
		 M79.914,80.994v-1.963h-8.094v1.963h2.945v9.314h2.202v-9.314H79.914z M84.507,79.031h-2.203v11.28h2.203V79.031z M95.53,84.667
		c0-1.947,0.016-3.357-1.123-4.498c-0.795-0.791-1.761-1.232-3.042-1.232c-1.284,0-2.266,0.441-3.057,1.232
		c-1.143,1.141-1.11,2.551-1.11,4.498c0,1.949-0.032,3.357,1.11,4.5c0.791,0.792,1.772,1.234,3.057,1.234
		c1.281,0,2.247-0.442,3.042-1.234C95.545,88.025,95.53,86.617,95.53,84.667 M93.328,84.667c0,2.171-0.125,2.694-0.553,3.167
		c-0.318,0.368-0.808,0.604-1.41,0.604c-0.601,0-1.107-0.235-1.426-0.604c-0.427-0.473-0.538-0.996-0.538-3.167
		c0-2.17,0.111-2.692,0.538-3.169c0.318-0.364,0.825-0.6,1.426-0.6c0.603,0,1.092,0.235,1.41,0.6
		C93.203,81.975,93.328,82.498,93.328,84.667 M106.618,90.308V79.031h-2.202v6.906l-4.467-6.906h-1.963v11.277h2.201v-6.923
		l4.465,6.923H106.618z M122.028,80.994v-1.963h-7.429v11.277h2.203v-4.579h4.448v-1.962h-4.448v-2.773H122.028z M132.023,84.667
		c0-1.947,0.016-3.357-1.126-4.498c-0.791-0.791-1.759-1.232-3.042-1.232c-1.282,0-2.263,0.441-3.057,1.232
		c-1.14,1.141-1.107,2.551-1.107,4.498c0,1.949-0.032,3.357,1.107,4.5c0.794,0.792,1.774,1.234,3.057,1.234
		c1.283,0,2.251-0.442,3.042-1.234C132.039,88.025,132.023,86.617,132.023,84.667 M129.821,84.667c0,2.171-0.128,2.694-0.556,3.167
		c-0.318,0.368-0.808,0.604-1.41,0.604c-0.602,0-1.107-0.235-1.424-0.604c-0.428-0.473-0.539-0.996-0.539-3.167
		c0-2.17,0.111-2.692,0.539-3.169c0.316-0.364,0.822-0.6,1.424-0.6c0.603,0,1.092,0.235,1.41,0.6
		C129.693,81.975,129.821,82.498,129.821,84.667 M143.012,90.308l-2.517-4.863c1.091-0.398,2.059-1.377,2.059-2.961
		c0-1.886-1.363-3.453-3.658-3.453h-4.419v11.277h2.201v-4.501h1.582l2.203,4.501H143.012z M140.352,82.484
		c0,0.872-0.634,1.486-1.6,1.486h-2.074v-2.977h2.074C139.718,80.994,140.352,81.613,140.352,82.484 M159.056,90.308l-4.117-11.277
		h-1.725l-4.102,11.277h2.295l0.684-1.997h4.006l0.665,1.997H159.056z M155.51,86.459h-2.802l1.423-4.104L155.51,86.459z
		 M171.428,90.308V79.031h-2.17l-2.93,6.097l-2.948-6.097h-2.169v11.277h2.202v-6.575l2.169,4.277h1.489l2.155-4.277v6.575H171.428z
		 M181.691,90.308v-1.965h-5.228v-2.741h4.452v-1.964h-4.452v-2.645h5.228v-1.963h-7.427v11.277H181.691z M192.904,90.308
		l-2.518-4.863c1.092-0.398,2.058-1.377,2.058-2.961c0-1.886-1.359-3.453-3.658-3.453h-4.417v11.277h2.199v-4.501h1.584l2.201,4.501
		H192.904z M190.246,82.484c0,0.872-0.634,1.486-1.603,1.486h-2.075v-2.977h2.075C189.612,80.994,190.246,81.613,190.246,82.484
		 M197.53,79.031h-2.203v11.28h2.203V79.031z M208.205,86.838h-2.233c-0.223,0.9-0.79,1.6-1.899,1.6
		c-0.604,0-1.094-0.221-1.411-0.587c-0.426-0.473-0.553-1.013-0.553-3.184c0-2.17,0.127-2.708,0.553-3.182
		c0.317-0.364,0.807-0.587,1.411-0.587c1.109,0,1.677,0.699,1.899,1.599h2.233c-0.395-2.357-2.042-3.561-4.148-3.561
		c-1.236,0-2.251,0.441-3.044,1.232c-1.138,1.141-1.105,2.551-1.105,4.498c0,1.949-0.032,3.357,1.105,4.5
		c0.793,0.792,1.808,1.234,3.044,1.234C206.147,90.402,207.81,89.199,208.205,86.838 M219.418,90.308L215.3,79.031h-1.726
		l-4.104,11.277h2.296l0.682-1.997h4.009l0.663,1.997H219.418z M215.869,86.459h-2.803l1.425-4.104L215.869,86.459z M229.968,90.308
		V79.031h-2.201v6.906l-4.468-6.906h-1.964v11.277h2.201v-6.923l4.466,6.923H229.968z M245.947,90.308l-4.118-11.277h-1.725
		l-4.103,11.277h2.294l0.684-1.997h4.006l0.666,1.997H245.947z M242.4,86.459h-2.804l1.425-4.104L242.4,86.459z M256.557,90.308
		l-2.517-4.863c1.094-0.398,2.062-1.377,2.062-2.961c0-1.886-1.366-3.453-3.663-3.453h-4.414v11.277h2.199v-4.501h1.584l2.2,4.501
		H256.557z M253.899,82.484c0,0.872-0.634,1.486-1.602,1.486h-2.073v-2.977h2.073C253.265,80.994,253.899,81.613,253.899,82.484
		 M266,80.994v-1.963h-8.096v1.963h2.948v9.314h2.199v-9.314H266z"/>
	<polygon points="44.693,0 44.693,8.672 27.173,8.672 27.173,63.644 17.519,63.644 17.519,8.672 0,8.672 0,0 	"/>
	<polygon points="93.026,63.644 93.026,54.973 62.01,54.973 62.01,36.839 88.468,36.839 88.468,27.861 62.01,27.861 62.01,8.67 
		93.026,8.67 93.026,0.001 52.356,0.001 52.356,63.644 	"/>
	<path d="M205.125,18.593c0-10.815-7.687-18.592-19.757-18.592h-26.293v63.643h9.65V36.829h13.696l13.406,26.815h11.261
		l-14.658-28.156C198.586,33.629,205.125,27.71,205.125,18.593 M195.471,18.683c0,6.256-6.006,9.108-12.44,9.108h-14.305V8.672
		h15.929C191.088,8.672,195.471,12.425,195.471,18.683"/>
	<path d="M150.935,63.644l-14.66-28.156c6.153-1.858,12.691-7.778,12.691-16.893c0-10.817-7.688-18.593-19.753-18.593h-26.297
		v63.643h9.655V36.829h13.692l13.408,26.815H150.935z M139.312,18.683c0,6.256-6.004,9.108-12.438,9.108h-14.303V8.672h15.926
		C134.935,8.672,139.312,12.426,139.312,18.683"/>
	<path d="M265.434,63.644L242.105,0h-7.776l-23.33,63.644h10.281l4.377-12.782h25.119l4.378,12.782H265.434z M247.788,41.749
		h-18.957l9.61-27.357L247.788,41.749z"/>
</g>
</svg>
