<?xml version="1.0" encoding="utf-8"?>
<!-- Generator: Adobe Illustrator 19.1.0, SVG Export Plug-In . SVG Version: 6.00 Build 0)  -->
<svg version="1.1" id="Layer_1" xmlns="http://www.w3.org/2000/svg" xmlns:xlink="http://www.w3.org/1999/xlink" x="0px" y="0px"
	 viewBox="0 0 294 80" style="enable-background:new 0 0 294 80;" xml:space="preserve">
<style type="text/css">
	.st0{fill:#000000;}
</style>
<path class="st0" d="M244.7,79.7h1.9V75l4.1-6.3h-2.3l-2.7,4.4l-2.7-4.4h-2.5l4.1,6.3V79.7 M233.8,79.7h2v-9.2h3.4v-1.8h-8.7v1.8
	h3.4V79.7z M222.4,73.4v-3h1.7c1,0,2.2,0.2,2.2,1.5c0,1.4-1.3,1.5-2.4,1.5H222.4z M220.5,79.7h2v-4.7h1.4l2.5,4.7h2.4l-2.9-4.9
	c1.6-0.2,2.5-1.4,2.5-3c0-2.5-2-3.1-4.1-3.1h-3.8V79.7z M209.5,79.7h7.5V78h-5.6v-3h5v-1.8h-5v-2.7h5.3v-1.8h-7.3V79.7z M200.4,73.5
	v-3.1h1.4c1.1,0,2.3,0.2,2.3,1.5c0,1.5-1.4,1.6-2.6,1.6H200.4z M198.4,79.7h2v-4.5h1.4c2.3,0,4.4-0.5,4.4-3.3c0-2.4-1.9-3.2-4-3.2
	h-3.7V79.7z M185.4,74.2c0-2.2,1.5-3.9,3.8-3.9c2.3,0,3.8,1.7,3.8,3.9c0,2.3-1.5,4.1-3.8,4.1C186.9,78.2,185.4,76.5,185.4,74.2
	 M183.4,74.3c0,3.4,2.4,5.7,5.8,5.7c3.4-0.1,5.8-2.4,5.8-5.8c0-3.5-2.4-5.8-5.8-5.8C185.8,68.5,183.4,70.8,183.4,74.3 M174.6,73.4
	v-3h1.7c1,0,2.2,0.2,2.2,1.5c0,1.4-1.3,1.5-2.4,1.5H174.6z M172.7,79.7h2v-4.7h1.4l2.5,4.7h2.4l-2.9-4.9c1.6-0.2,2.5-1.4,2.5-3
	c0-2.5-2-3.1-4.1-3.1h-3.8V79.7z M163.6,73.5v-3.1h1.4c1.1,0,2.3,0.2,2.3,1.5c0,1.5-1.4,1.6-2.6,1.6H163.6z M161.6,79.7h1.9v-4.5
	h1.4c2.3,0,4.4-0.5,4.4-3.3c0-2.4-1.9-3.2-4-3.2h-3.7V79.7z M142.5,74.2c0-2.2,1.5-3.9,3.8-3.9c2.3,0,3.8,1.7,3.8,3.9
	c0,2.3-1.5,4.1-3.8,4.1C144,78.2,142.5,76.5,142.5,74.2 M140.4,74.3c0,3.4,2.4,5.7,5.8,5.7c3.4-0.1,5.8-2.4,5.8-5.8
	c0-3.5-2.4-5.8-5.8-5.8C142.9,68.5,140.4,70.8,140.4,74.3 M129.7,78v-7.4h1.8c2.4,0,4.1,1.1,4.1,3.7c0,2.7-2,3.7-4.5,3.7H129.7z
	 M127.7,79.7h4.1c2.6,0,5.8-1.7,5.8-5.5c0-3.7-2.7-5.5-5.6-5.5h-4.3V79.7z M117.6,75.5l1.7-4.5l1.7,4.5H117.6z M113.7,79.7h2.2
	l1-2.5h4.8l1,2.5h2.2l-4.7-11h-1.7L113.7,79.7z M101.1,79.7h2v-8.4h0l5.4,8.4h2.5v-11H109v8.2l0,0h0l0,0l-5.3-8.2h-2.6V79.7z
	 M91.7,73.4v-3h1.7c1,0,2.2,0.2,2.2,1.5c0,1.4-1.3,1.5-2.4,1.5H91.7z M89.8,79.7h2v-4.7h1.4l2.5,4.7H98l-2.9-4.9
	c1.6-0.2,2.5-1.4,2.5-3c0-2.5-2-3.1-4.1-3.1h-3.8V79.7z M76.8,74.2c0-2.2,1.5-3.9,3.8-3.9c2.3,0,3.8,1.7,3.8,3.9
	c0,2.3-1.5,4.1-3.8,4.1C78.3,78.2,76.8,76.5,76.8,74.2 M74.7,74.3c0,3.4,2.4,5.7,5.8,5.7c3.4-0.1,5.8-2.4,5.8-5.8
	c0-3.5-2.4-5.8-5.8-5.8C77.1,68.5,74.7,70.8,74.7,74.3 M66.4,79.7h1.7l4.4-11h-2.1L67.4,77l-3-8.3h-2.3L66.4,79.7z M47.1,75.5
	l1.7-4.5l1.7,4.5H47.1z M43.3,79.7h2.2l1-2.5h4.8l1,2.5h2.2l-4.7-11h-1.7L43.3,79.7z"/>
<polyline class="st0" points="128.3,0.4 116.2,35 104,0.4 86.3,0.4 86.3,55.9 99.8,55.9 99.8,22.9 111.4,55.9 120.8,55.9 
	132.3,22.9 132.3,55.9 145.9,55.9 145.9,0.4 128.3,0.4 "/>
<path class="st0" d="M173.6,17.6l5.7,15.6h-11.4L173.6,17.6 M166.4,0.4l-21.2,55.5h14.4l3.9-10.8h20.2l4,10.8h14.7L181.2,0.4H166.4z
	"/>
<path class="st0" d="M216,26h9c5.1,0,7.5-2.6,7.5-6.7c0-4.1-2.3-6.7-7.5-6.7h-9V26 M216,37.6v18.3h-14.4V0.4h24.9
	c11.9,0,20.2,6.8,20.2,18.9c0,8.4-4.2,14.2-11,16.7l13,19.9h-16.1L221,37.6H216z"/>
<polyline class="st0" points="245.2,0.4 245.2,12.9 262.2,12.9 262.2,55.9 276.8,55.9 276.8,12.9 294,12.9 294,0.4 245.2,0.4 "/>
<path class="st0" d="M6.5,20.5H0v-2.4h6.5V8.5H9v9.5h11v2.4H9v27c0,4.7,2,6.7,5.8,6.7c2,0,3.8-0.6,5.3-1.4v2.6
	c-1.5,0.7-3.5,1.2-5.3,1.2c-5.1,0-8.4-2.8-8.4-8.9V20.5"/>
<path class="st0" d="M23,0.5h2.6v24.5c2.4-4.1,7.2-7.7,12.9-7.7c8.6,0,13,5.4,13,13.3v25.2h-2.6V31c0-6.4-3.2-11.2-10.7-11.2
	c-5.8,0-10.5,4.2-12.7,9v27.1H23V0.5"/>
<path class="st0" d="M55.9,34.4h25.8c-0.3-7.4-3.8-14.7-12.3-14.7C61.9,19.8,56.7,25.7,55.9,34.4 M83.7,45.3
	c-1.5,6.7-6.6,11.3-14.1,11.3c-9.7,0-16.4-7.8-16.4-19.6c0-11.3,6.1-19.6,16.3-19.6c9.9,0,15,7.8,15,18.4v0.9H55.8
	c0,10.7,5.7,17.5,13.7,17.5c5.9,0,10.2-3.5,11.5-9H83.7z"/>
</svg>
