<?xml version="1.0" encoding="utf-8"?>
<!-- Generator: Adobe Illustrator 16.0.0, SVG Export Plug-In . SVG Version: 6.00 Build 0)  -->
<!DOCTYPE svg PUBLIC "-//W3C//DTD SVG 1.1//EN" "http://www.w3.org/Graphics/SVG/1.1/DTD/svg11.dtd">
<svg version="1.1" id="Layer_1" xmlns="http://www.w3.org/2000/svg" xmlns:xlink="http://www.w3.org/1999/xlink" x="0px" y="0px"
	 width="633.244px" height="310.133px" viewBox="0 0 633.244 310.133" enable-background="new 0 0 633.244 310.133"
	 xml:space="preserve">
<g>
	<path d="M633.244,195.366c-6.076,10.686-14.362,19.496-24.505,26.352c-34.569,23.361-70.835,24.158-108.042,7.066
		c-21.597-9.922-38.85-25.518-54.449-43.131c-6.627-7.48-13.205-15.031-20.267-22.09c-2.713-2.71-6.707-4.137-9.812-5.966
		c-1.23,1.288-1.65,1.522-1.646,1.752c0.19,14.784,0.045,29.586,0.789,44.343c0.394,7.797,5.398,12.531,13.224,14.168
		c3.89,0.812,3.846,1.023,3.184,5.896c-54.655,0-109.358,0-164.446,0c-1.049-2.834-0.661-4.682,3.487-5.194
		c4.588-0.567,9.096-1.853,13.604-2.959c5.457-1.343,8.458-5.076,9.393-10.453c0.566-3.265,1.075-6.59,1.09-9.892
		c0.097-21.496,0.081-42.995,0.039-64.492c-0.026-13.012-3.163-16.751-15.782-19.571c-1.493-0.333-2.774-1.616-4.153-2.459
		c1.278-1.209,2.351-2.937,3.87-3.545c9.846-3.94,19.852-7.487,29.664-11.509c2.854-1.17,5.171-3.6,7.87-5.224
		c3.214-1.933,5.027-0.91,4.929,2.845c-0.157,5.909-0.571,11.81-0.939,18.941c2.578-1.988,4.271-3.184,5.842-4.523
		c8.399-7.163,16.928-14.186,28.117-16.464c5.395-1.098,10.906-1.472,15.983,1.609c6.497,3.943,8.966,11.013,6.127,17.651
		c-2.881,6.738-8.633,9.151-16.539,6.667c-2.504-0.786-5.038-1.871-7.17-3.371c-7.393-5.2-14.486-4.317-21.924,0.01
		c-7.409,4.311-10.954,9.856-10.665,18.965c0.647,20.478,0.149,40.99,0.256,61.488c0.018,3.467,0.447,6.984,1.157,10.383
		c1.356,6.496,5.111,11.176,11.609,13.164c14.721,4.506,29.487,4.327,44.188-0.068c6.877-2.057,10.256-6.981,10.594-14.08
		c0.293-6.146,0.841-12.291,0.852-18.438c0.073-44.329,0.062-88.658,0.002-132.987c-0.007-4.312-0.371-8.642-0.854-12.932
		c-0.966-8.624-3.557-11.176-12.199-13.409c-2.403-0.621-6.273-2.013-6.482-3.477c-0.629-4.411,3.953-3.478,6.457-4.193
		c12.049-3.443,23.816-7.385,34.143-14.827c1.429-1.03,3.646-0.967,5.497-1.411c0.281,1.56,0.85,3.127,0.802,4.676
		c-0.599,19.458-1.635,38.909-1.867,58.369c-0.328,27.66-0.082,55.327-0.082,82.991c0,1.973,0,3.945,0,6.181
		c4.69,1.003,8.272-0.383,11.281-3.196c11.194-10.466,22.363-20.96,33.385-31.607c2.237-2.16,4.069-4.873,5.595-7.607
		c2.517-4.512,1.314-7.571-3.538-9.375c-2.312-0.859-4.944-0.884-7.205-1.83c-1.193-0.499-1.899-2.163-2.826-3.3
		c1.129-0.847,2.254-2.406,3.387-2.412c4.146-0.022,8.295,0.764,12.438,0.72c13.437-0.143,26.871-0.573,40.308-0.746
		c1.991-0.025,5.099-1.476,5.371,2.43c0.242,3.449-2.559,3.414-4.784,3.724c-9.068,1.264-17.611,4.127-24.717,9.906
		c-14.574,11.855-28.843,24.087-43.231,36.161c0.604,1.28,0.752,1.967,1.164,2.408c16.381,17.519,32.324,35.478,49.319,52.381
		c16.32,16.232,36.237,26.885,59.299,29.469c32.137,3.603,59.622-5.215,78.742-33.246c0.793-1.163,2.714-1.557,4.109-2.309
		C632.602,194.313,632.923,194.838,633.244,195.366z"/>
	<path d="M81.222,194.129c3.937-7.935,7.192-14.799,10.712-21.525c8.247-15.758,15.783-31.973,25.158-47.037
		c11.576-18.601,27.553-32.895,48.406-40.894c41.441-15.896,84.637,6.345,103.212,37.271c15.957,26.566,12.069,63.205-8.546,85.482
		c-11.438,12.359-25.892,18.773-42.553,20.783c-17.332,2.094-34.006,0.209-49.207-8.621c-21.893-12.717-32.711-32.098-33.695-57.457
		c-0.881-22.717,7.43-40.937,25.128-54.829c12.12-9.513,26.269-12.145,41.475-10.583c-14.606-1.021-22.135,8.381-28.222,19.344
		c-9.042,16.286-10.644,34.071-9.312,52.263c0.819,11.188,3.11,22.037,8.522,32.026c12.552,23.17,41.784,28.729,59.933,11.226
		c8.569-8.268,12.922-18.886,14.97-30.408c3.699-20.813,3.378-41.383-5.294-61.11c-9.499-21.612-34.821-34.593-58.265-31.507
		c-22.895,3.014-40,14.911-51.921,33.515c-11.27,17.587-21.197,36.163-30.278,54.997C84.331,212.56,68.474,248.661,51.553,284.25
		c-3.494,7.351-8.737,14.147-14.308,20.146c-5.096,5.486-12.276,7.006-19.842,4.702c-8.004-2.438-11.835-9.907-9.282-18.288
		c2.113-6.938,9.918-10.791,17.369-8.576c11.73,3.486,13.453,2.781,18.816-8.59c7.165-15.191,14.248-30.422,21.166-45.729
		c0.784-1.733,0.921-4.295,0.265-6.066c-11.945-32.264-24.021-64.479-36.186-96.66c-1.403-3.713-3.359-7.243-5.305-10.72
		c-4.375-7.815-10.761-12.884-19.788-14.594C2.801,99.56,1.477,97.489,0,96.229c1.694-0.819,3.411-2.38,5.08-2.331
		c7.303,0.216,14.593,1.315,21.887,1.313c10.63-0.002,21.261-0.666,31.891-1.066c2.324-0.087,4.67-0.509,6.956-0.276
		c1.165,0.119,2.218,1.347,3.321,2.074c-0.901,1.17-1.567,2.894-2.751,3.394c-2.413,1.018-5.168,1.189-7.67,2.039
		c-7.599,2.582-10.229,6.539-7.673,14.055c5.343,15.716,11.347,31.208,17.197,46.749c3.279,8.71,6.776,17.337,10.212,25.986
		C79.091,189.784,79.913,191.331,81.222,194.129z"/>
	<path d="M530.55,142.036c-4.275,30.958-0.889,55.294,25.434,71.492c6.976,4.293,14.594,6.418,22.916,4.364
		c1.021-0.252,2.157-0.034,3.285,0.397c-8.392,3.984-17.31,5.187-26.416,4.69c-25.139-1.364-45.39-16.312-53.163-40.121
		c-11.995-36.738,7.117-82.653,46.371-92.361c26.68-6.598,50.173,0.517,66.104,22.293c5.02,6.862,7.91,14.448,8.642,23.035
		c0.416,4.886-1.462,6.283-5.827,6.234c-8.332-0.092-16.666-0.026-24.999-0.025c-19,0-37.999,0-56.999,0
		C534.09,142.036,532.284,142.036,530.55,142.036z M532.659,134.663c1.811,0,3.275,0.033,4.74-0.005
		c13.64-0.35,27.282-0.597,40.916-1.138c4.113-0.164,8.239-0.949,12.281-1.813c4.512-0.965,6.171-4.374,5.853-8.622
		c-1.321-17.589-15.859-27.576-31.553-26.25C548.071,98.255,533.128,115.914,532.659,134.663z"/>
</g>
</svg>
