<?xml version="1.0" encoding="UTF-8"?>
<svg width="570px" height="24px" viewBox="0 0 570 24" version="1.1" xmlns="http://www.w3.org/2000/svg" xmlns:xlink="http://www.w3.org/1999/xlink">
    <!-- Generator: Sketch 52.3 (67297) - http://www.bohemiancoding.com/sketch -->
    <title>Group</title>
    <desc>Created with Sketch.</desc>
    <g id="Page-1" stroke="none" stroke-width="1" fill="none" fill-rule="evenodd">
        <g id="landing-page" transform="translate(-964.000000, -437.000000)" fill="#231F20">
            <g id="logo" transform="translate(961.000000, 122.000000)">
                <g id="Group" transform="translate(3.000000, 315.000000)">
                    <path d="M13.0651685,14.3223529 L5.5576779,14.3223529 L4.04906367,18.0352941 L0.604868914,18.0352941 L7.61423221,1.32 L10.9588015,1.32 L18.0677903,18.0352941 L14.5951311,18.0352941 L13.0651685,14.3223529 Z M11.8981273,11.4917647 L9.29363296,5.20235294 L6.717603,11.4917647 L11.8981273,11.4917647 Z" id="Shape" fill-rule="nonzero"></path>
                    <path d="M39.6722846,13.1929412 C39.6722846,16.0164706 37.3168539,18.0352941 34.1715356,18.0352941 L26.5430712,18.0352941 L26.5430712,1.32 L33.9011236,1.32 C37.0250936,1.32 39.4303371,3.31058824 39.4303371,6.13411765 C39.4303371,7.68 38.6902622,8.86588235 37.4734082,9.6 C38.8254682,10.2917647 39.6722846,11.4917647 39.6722846,13.1929412 Z M29.7097378,4.34117647 L29.7097378,8.25176471 L33.9438202,8.25176471 C35.3812734,8.25176471 36.2209738,7.39058824 36.2209738,6.28235294 C36.2209738,5.20235294 35.4026217,4.34117647 33.9438202,4.34117647 L29.7097378,4.34117647 Z M36.4985019,13.0447059 C36.4985019,11.9364706 35.6588015,11.1035294 34.2213483,11.1035294 L29.7097378,11.1035294 L29.7097378,15.0352941 L34.2213483,15.0352941 C35.6588015,15.0352941 36.4985019,14.1458824 36.4985019,13.0447059 Z" id="Shape" fill-rule="nonzero"></path>
                    <path d="M49.0086142,5.47058824 L49.0086142,8.47058824 C46.2333333,8.47058824 45.0449438,9.82588235 45.0449438,11.5905882 L45.0449438,18.0282353 L41.9707865,18.0282353 L41.9707865,5.73882353 L45.0449438,5.73882353 L45.0449438,7.28470588 C45.8846442,6.18352941 47.2509363,5.47058824 49.0086142,5.47058824 Z" id="Path"></path>
                    <path d="M50.9157303,2.23058824 C50.9157303,1.17176471 51.8052434,0.388235294 52.8726592,0.388235294 C53.9116105,0.388235294 54.7797753,1.17176471 54.7797753,2.23058824 C54.7797753,3.28941176 53.9116105,4.07294118 52.8726592,4.07294118 C51.8052434,4.07294118 50.9157303,3.28235294 50.9157303,2.23058824 Z M54.4310861,5.74588235 L54.4310861,18.0352941 L51.2573034,18.0352941 L51.2573034,5.74588235 L54.4310861,5.74588235 Z" id="Shape" fill-rule="nonzero"></path>
                    <path d="M68.9550562,13.1152941 L60.2307116,13.1152941 C60.5794007,14.6611765 61.6183521,15.5505882 63.2052434,15.5505882 C64.5928839,15.5505882 65.7599251,14.8588235 66.3007491,13.8564706 L68.7273408,15.2329412 C67.6883895,17.1247059 65.4539326,18.3529412 63.1554307,18.3529412 C59.5902622,18.3529412 57.0853933,15.5294118 57.0853933,11.8870588 C57.0853933,8.24470588 59.5617978,5.42117647 63.1838951,5.42117647 C66.1086142,5.42117647 68.5850187,7.26352941 68.9835206,10.8564706 C69.0475655,11.52 69.0475655,12.2823529 68.9550562,13.1152941 Z M60.2307116,10.7082353 L65.9022472,10.7082353 C65.7812734,9.08470588 64.5146067,8.22352941 63.0771536,8.22352941 C61.4902622,8.22352941 60.529588,9.18352941 60.2307116,10.7082353 Z" id="Shape" fill-rule="nonzero"></path>
                    <path d="M75.6655431,4.90588235 L75.6655431,5.73882353 L78.5617978,5.73882353 L78.5617978,8.49176471 L75.6655431,8.49176471 L75.6655431,18.0282353 L72.5700375,18.0282353 L72.5700375,8.49176471 L70.3426966,8.49176471 L70.3426966,5.73882353 L72.5700375,5.73882353 L72.5700375,4.65882353 C72.5700375,2.10352941 73.8865169,0.825882353 76.4340824,0.825882353 L78.5617978,0.825882353 L78.5617978,3.57882353 L76.9250936,3.57882353 C76.0640449,3.57882353 75.6655431,3.99529412 75.6655431,4.90588235 Z" id="Path"></path>
                    <path d="M99.7962547,18.5505882 L97.4906367,16.3129412 C95.9037453,17.64 93.9966292,18.4235294 92.0397004,18.4235294 C88.7662921,18.4235294 86.1689139,16.1858824 86.1689139,13.3129412 C86.1689139,10.9270588 87.9550562,9.62823529 89.8337079,8.68941176 C88.8161049,7.51058824 88.1258427,6.35294118 88.1258427,5.07529412 C88.1258427,2.78823529 90.2820225,0.924705882 93.1071161,0.924705882 C95.7827715,0.924705882 97.8677903,2.59764706 97.8677903,5.07529412 C97.8677903,7.06588235 96.5299625,8.37176471 94.594382,9.42352941 L97.3981273,12.1976471 C98.0172285,11.2376471 98.5367041,10.1364706 98.8569288,8.90117647 L101.610861,9.61411765 C101.162547,11.3082353 100.422472,12.8823529 99.4546816,14.1882353 L101.909738,16.5952941 L99.7962547,18.5505882 Z M95.4838951,14.3223529 L91.8902622,10.8070588 L91.8404494,10.7576471 C90.1325843,11.5411765 89.2146067,12.1552941 89.2146067,13.2917647 C89.2146067,14.6470588 90.5808989,15.5788235 92.2389513,15.5788235 C93.3561798,15.5717647 94.4662921,15.1341176 95.4838951,14.3223529 Z M91.1217228,5.13176471 C91.1217228,5.67529412 91.4205993,6.24 92.6089888,7.48941176 C94.1958801,6.75529412 94.9644195,6.09176471 94.9644195,5.23058824 C94.9644195,4.34823529 94.1958801,3.58588235 93.0074906,3.58588235 C91.8689139,3.57882353 91.1217228,4.29176471 91.1217228,5.13176471 Z" id="Shape" fill-rule="nonzero"></path>
                    <polygon id="Path" points="113.964419 1.32 113.964419 18.0352941 110.740824 18.0352941 110.740824 1.32"></polygon>
                    <path d="M128.979401,10.9058824 L128.979401,18.0352941 L125.883895,18.0352941 L125.883895,11.5482353 C125.883895,9.55764706 124.844944,8.32941176 123.329213,8.32941176 C121.671161,8.32941176 120.50412,9.82588235 120.50412,11.5976471 L120.50412,18.0352941 L117.429963,18.0352941 L117.429963,5.74588235 L120.50412,5.74588235 L120.50412,7.29176471 C121.34382,6.13411765 122.710112,5.4 124.297004,5.4 C127.093633,5.4 128.979401,7.75764706 128.979401,10.9058824 Z" id="Path"></path>
                    <path d="M143.076404,14.8164706 C142.008989,16.9270588 139.831461,18.3529412 137.305243,18.3529412 C133.661798,18.3529412 130.865169,15.48 130.865169,11.8870588 C130.865169,8.27294118 133.661798,5.4 137.305243,5.4 C139.810112,5.4 141.98764,6.82588235 143.055056,8.91529412 L140.258427,10.1435294 C139.660674,9.03529412 138.550562,8.37176471 137.31236,8.37176471 C135.405243,8.37176471 134.017603,9.89647059 134.017603,11.8870588 C134.017603,13.8564706 135.405243,15.3741176 137.31236,15.3741176 C138.550562,15.3741176 139.66779,14.6894118 140.258427,13.5811765 L143.076404,14.8164706 Z" id="Path"></path>
                    <path d="M144.364419,11.8870588 C144.364419,8.30117647 147.260674,5.42117647 150.90412,5.42117647 C154.497753,5.42117647 157.394007,8.29411765 157.394007,11.8870588 C157.394007,15.48 154.497753,18.3529412 150.90412,18.3529412 C147.260674,18.3529412 144.364419,15.48 144.364419,11.8870588 Z M154.248689,11.8870588 C154.248689,9.89647059 152.789888,8.4 150.90412,8.4 C148.968539,8.4 147.509738,9.89647059 147.509738,11.8870588 C147.509738,13.8776471 148.968539,15.3741176 150.90412,15.3741176 C152.761423,15.3811765 154.248689,13.8776471 154.248689,11.8870588 Z" id="Shape" fill-rule="nonzero"></path>
                    <path d="M178.429213,10.8564706 L178.429213,18.0352941 L175.333708,18.0352941 L175.333708,11.3717647 C175.333708,9.50117647 174.41573,8.32235294 173.02809,8.32235294 C171.619101,8.32235294 170.573034,9.50117647 170.573034,11.3717647 L170.573034,18.0352941 L167.477528,18.0352941 L167.477528,11.3717647 C167.477528,9.50117647 166.538202,8.32235294 165.150562,8.32235294 C163.762921,8.32235294 162.745318,9.50117647 162.745318,11.3717647 L162.745318,18.0352941 L159.649813,18.0352941 L159.649813,5.74588235 L162.745318,5.74588235 L162.745318,7.32 C163.513858,6.14117647 164.702247,5.4 166.168165,5.4 C167.755056,5.4 169.014607,6.28235294 169.783146,7.65882353 C170.573034,6.43058824 172.038951,5.4 173.874906,5.4 C176.621723,5.4 178.429213,7.80705882 178.429213,10.8564706 Z" id="Path"></path>
                    <path d="M193.63633,11.8870588 C193.614981,15.6494118 191.131461,18.3529412 187.986142,18.3529412 C186.32809,18.3529412 185.089888,17.5905882 184.342697,16.56 L184.342697,22.9482353 L181.247191,22.9482353 L181.247191,5.74588235 L184.342697,5.74588235 L184.342697,7.22117647 C185.082772,6.16235294 186.349438,5.42823529 188.007491,5.42823529 C191.209738,5.42117647 193.63633,8.17411765 193.63633,11.8870588 Z M190.491011,11.8658824 C190.491011,9.84705882 189.202996,8.4 187.416854,8.37882353 C185.630712,8.37882353 184.271536,9.80470588 184.271536,11.8941176 C184.271536,14.0047059 185.637828,15.4094118 187.395506,15.4094118 C189.181648,15.4023529 190.491011,13.9270588 190.491011,11.8658824 Z" id="Shape" fill-rule="nonzero"></path>
                    <polygon id="Path" points="199.535581 0.825882353 199.535581 18.0282353 196.390262 18.0282353 196.390262 0.825882353"></polygon>
                    <path d="M213.803371,13.1152941 L205.086142,13.1152941 C205.434831,14.6611765 206.473783,15.5505882 208.060674,15.5505882 C209.448315,15.5505882 210.615356,14.8588235 211.15618,13.8564706 L213.582772,15.2329412 C212.54382,17.1247059 210.309363,18.3529412 208.010861,18.3529412 C204.445693,18.3529412 201.940824,15.5294118 201.940824,11.8870588 C201.940824,8.24470588 204.417228,5.42117647 208.039326,5.42117647 C210.964045,5.42117647 213.440449,7.26352941 213.838951,10.8564706 C213.902996,11.52 213.902996,12.2823529 213.803371,13.1152941 Z M205.086142,10.7082353 L210.757678,10.7082353 C210.636704,9.08470588 209.370037,8.22352941 207.932584,8.22352941 C206.345693,8.22352941 205.377903,9.18352941 205.086142,10.7082353 Z" id="Shape" fill-rule="nonzero"></path>
                    <path d="M220.471161,8.49882353 L220.471161,13.6870588 C220.471161,14.6964706 220.919476,15.1623529 221.837453,15.1623529 L223.374532,15.1623529 L223.374532,18.0352941 L221.36779,18.0352941 C218.692135,18.0352941 217.375655,16.7576471 217.375655,14.0752941 L217.375655,8.49882353 L215.148315,8.49882353 L215.148315,5.74588235 L217.375655,5.74588235 L217.375655,2.69647059 L220.471161,1.73647059 L220.471161,5.74588235 L223.367416,5.74588235 L223.367416,8.49882353 L220.471161,8.49882353 Z" id="Path"></path>
                    <path d="M236.845318,13.1152941 L228.120974,13.1152941 C228.469663,14.6611765 229.508614,15.5505882 231.095506,15.5505882 C232.483146,15.5505882 233.650187,14.8588235 234.191011,13.8564706 L236.617603,15.2329412 C235.578652,17.1247059 233.344195,18.3529412 231.045693,18.3529412 C227.480524,18.3529412 224.975655,15.5294118 224.975655,11.8870588 C224.975655,8.24470588 227.45206,5.42117647 231.074157,5.42117647 C233.998876,5.42117647 236.475281,7.26352941 236.873783,10.8564706 C236.944944,11.52 236.944944,12.2823529 236.845318,13.1152941 Z M228.120974,10.7082353 L233.792509,10.7082353 C233.671536,9.08470588 232.404869,8.22352941 230.967416,8.22352941 C229.38764,8.22352941 228.41985,9.18352941 228.120974,10.7082353 Z" id="Shape" fill-rule="nonzero"></path>
                    <polygon id="Path" points="260.235955 1.32 260.235955 18.0352941 257.01236 18.0352941 257.01236 11.2023529 249.056554 11.2023529 249.056554 18.0352941 245.861423 18.0352941 245.861423 1.32 249.056554 1.32 249.056554 8.15294118 257.01236 8.15294118 257.01236 1.32"></polygon>
                    <path d="M263.573408,2.23058824 C263.573408,1.17176471 264.462921,0.388235294 265.530337,0.388235294 C266.569288,0.388235294 267.437453,1.17176471 267.437453,2.23058824 C267.437453,3.28941176 266.569288,4.07294118 265.530337,4.07294118 C264.462921,4.07294118 263.573408,3.28235294 263.573408,2.23058824 Z M267.09588,5.74588235 L267.09588,18.0352941 L263.922097,18.0352941 L263.922097,5.74588235 L267.09588,5.74588235 Z" id="Shape" fill-rule="nonzero"></path>
                    <path d="M274.453933,18.3741176 C271.799625,18.3741176 269.842697,16.9764706 269.373034,14.8588235 L271.998876,14.0752941 C272.24794,15.0564706 273.165918,15.7482353 274.553558,15.7482353 C275.642322,15.7482353 276.538951,15.3035294 276.538951,14.6682353 C276.538951,13.9552941 275.521348,13.5882353 274.083895,13.2211765 C272.37603,12.7764706 269.899625,12.0423529 269.899625,9.36 C269.899625,6.90352941 272.027341,5.42823529 274.610487,5.42823529 C277.115356,5.42823529 278.922846,6.83294118 279.371161,8.94352941 L276.844944,9.72705882 C276.59588,8.76705882 275.777528,8.03294118 274.589139,8.03294118 C273.649813,8.03294118 272.881273,8.49882353 272.881273,9.16235294 C272.881273,9.82588235 273.671161,10.1435294 274.959176,10.4894118 C276.517603,10.8847059 279.520599,11.5482353 279.520599,14.4 C279.506367,16.9058824 277.179401,18.3741176 274.453933,18.3741176 Z" id="Path"></path>
                    <path d="M286.067416,8.49882353 L286.067416,13.6870588 C286.067416,14.6964706 286.51573,15.1623529 287.433708,15.1623529 L288.970787,15.1623529 L288.970787,18.0352941 L286.964045,18.0352941 C284.28839,18.0352941 282.97191,16.7576471 282.97191,14.0752941 L282.97191,8.49882353 L280.744569,8.49882353 L280.744569,5.74588235 L282.97191,5.74588235 L282.97191,2.69647059 L286.067416,1.73647059 L286.067416,5.74588235 L288.96367,5.74588235 L288.96367,8.49882353 L286.067416,8.49882353 Z" id="Path"></path>
                    <path d="M290.579026,11.8870588 C290.579026,8.30117647 293.475281,5.42117647 297.118727,5.42117647 C300.71236,5.42117647 303.608614,8.29411765 303.608614,11.8870588 C303.608614,15.48 300.71236,18.3529412 297.118727,18.3529412 C293.475281,18.3529412 290.579026,15.48 290.579026,11.8870588 Z M300.463296,11.8870588 C300.463296,9.89647059 299.004494,8.4 297.118727,8.4 C295.183146,8.4 293.724345,9.89647059 293.724345,11.8870588 C293.724345,13.8776471 295.183146,15.3741176 297.118727,15.3741176 C298.97603,15.3811765 300.463296,13.8776471 300.463296,11.8870588 Z" id="Shape" fill-rule="nonzero"></path>
                    <path d="M312.902247,5.47058824 L312.902247,8.47058824 C310.126966,8.47058824 308.938577,9.82588235 308.938577,11.5905882 L308.938577,18.0282353 L305.864419,18.0282353 L305.864419,5.73882353 L308.938577,5.73882353 L308.938577,7.28470588 C309.778277,6.18352941 311.144569,5.47058824 312.902247,5.47058824 Z" id="Path"></path>
                    <polygon id="Path" points="326.899625 5.74588235 319.740824 22.9482353 316.446067 22.9482353 318.773034 17.3929412 313.542697 5.74588235 316.91573 5.74588235 320.409738 13.5388235 323.683146 5.74588235"></polygon>
                    <path d="M334.250562,11.8870588 C334.250562,8.30117647 337.146816,5.42117647 340.790262,5.42117647 C344.383895,5.42117647 347.28015,8.29411765 347.28015,11.8870588 C347.28015,15.48 344.383895,18.3529412 340.790262,18.3529412 C337.153933,18.3529412 334.250562,15.48 334.250562,11.8870588 Z M344.141948,11.8870588 C344.141948,9.89647059 342.683146,8.4 340.797378,8.4 C338.861798,8.4 337.402996,9.89647059 337.402996,11.8870588 C337.402996,13.8776471 338.861798,15.3741176 340.797378,15.3741176 C342.654682,15.3811765 344.141948,13.8776471 344.141948,11.8870588 Z" id="Shape" fill-rule="nonzero"></path>
                    <path d="M353.898127,4.90588235 L353.898127,5.73882353 L356.794382,5.73882353 L356.794382,8.49176471 L353.898127,8.49176471 L353.898127,18.0282353 L350.802622,18.0282353 L350.802622,8.49176471 L348.575281,8.49176471 L348.575281,5.73882353 L350.802622,5.73882353 L350.802622,4.65882353 C350.802622,2.10352941 352.111985,0.825882353 354.666667,0.825882353 L356.801498,0.825882353 L356.801498,3.57882353 L355.164794,3.57882353 C354.296629,3.57882353 353.898127,3.99529412 353.898127,4.90588235 Z" id="Path"></path>
                    <path d="M380.085393,9.67764706 C380.085393,14.4988235 376.192884,18.0352941 371.069288,18.0352941 L364.970787,18.0352941 L364.970787,1.32 L371.069288,1.32 C376.2,1.32 380.085393,4.85647059 380.085393,9.67764706 Z M376.868914,9.67764706 C376.868914,6.50823529 374.492135,4.34117647 371.04794,4.34117647 L368.173034,4.34117647 L368.173034,15.0070588 L371.04794,15.0070588 C374.492135,15.0070588 376.868914,12.8470588 376.868914,9.67764706 Z" id="Shape" fill-rule="nonzero"></path>
                    <path d="M393.791011,13.1152941 L385.066667,13.1152941 C385.415356,14.6611765 386.454307,15.5505882 388.041199,15.5505882 C389.428839,15.5505882 390.59588,14.8588235 391.136704,13.8564706 L393.563296,15.2329412 C392.524345,17.1247059 390.289888,18.3529412 387.991386,18.3529412 C384.426217,18.3529412 381.921348,15.5294118 381.921348,11.8870588 C381.921348,8.24470588 384.397753,5.42117647 388.01985,5.42117647 C390.944569,5.42117647 393.420974,7.26352941 393.819476,10.8564706 C393.890637,11.52 393.890637,12.2823529 393.791011,13.1152941 Z M385.066667,10.7082353 L390.738202,10.7082353 C390.617228,9.08470588 389.350562,8.22352941 387.913109,8.22352941 C386.333333,8.22352941 385.365543,9.18352941 385.066667,10.7082353 Z" id="Shape" fill-rule="nonzero"></path>
                    <path d="M400.152809,18.3741176 C397.498502,18.3741176 395.541573,16.9764706 395.07191,14.8588235 L397.697753,14.0752941 C397.946816,15.0564706 398.864794,15.7482353 400.252434,15.7482353 C401.341199,15.7482353 402.237828,15.3035294 402.237828,14.6682353 C402.237828,13.9552941 401.220225,13.5882353 399.782772,13.2211765 C398.074906,12.7764706 395.598502,12.0423529 395.598502,9.36 C395.598502,6.90352941 397.726217,5.42823529 400.309363,5.42823529 C402.814232,5.42823529 404.621723,6.83294118 405.070037,8.94352941 L402.54382,9.72705882 C402.294757,8.76705882 401.476404,8.03294118 400.288015,8.03294118 C399.348689,8.03294118 398.58015,8.49882353 398.58015,9.16235294 C398.58015,9.82588235 399.370037,10.1435294 400.658052,10.4894118 C402.216479,10.8847059 405.219476,11.5482353 405.219476,14.4 C405.205243,16.9058824 402.878277,18.3741176 400.152809,18.3741176 Z" id="Path"></path>
                    <path d="M407.510861,2.23058824 C407.510861,1.17176471 408.400375,0.388235294 409.46779,0.388235294 C410.506742,0.388235294 411.374906,1.17176471 411.374906,2.23058824 C411.374906,3.28941176 410.506742,4.07294118 409.46779,4.07294118 C408.400375,4.07294118 407.510861,3.28235294 407.510861,2.23058824 Z M411.033333,5.74588235 L411.033333,18.0352941 L407.859551,18.0352941 L407.859551,5.74588235 L411.033333,5.74588235 Z" id="Shape" fill-rule="nonzero"></path>
                    <path d="M426.119476,5.74588235 L426.119476,17.1741176 C426.119476,20.8588235 423.344195,23.3223529 419.700749,23.3223529 C417.594382,23.3223529 415.637453,22.3623529 414.249813,20.8376471 L416.405993,18.9176471 C417.295506,19.8988235 418.441199,20.5411765 419.700749,20.5411765 C421.735955,20.5411765 423.02397,19.2352941 423.02397,17.1247059 L423.02397,16.4117647 C422.283895,17.4423529 421.017228,18.2047059 419.330712,18.2047059 C416.235206,18.2047059 413.758801,15.6494118 413.730337,11.8870588 C413.730337,8.17411765 416.156929,5.42117647 419.35206,5.42117647 C421.038577,5.42117647 422.276779,6.18352941 423.016854,7.24235294 L423.016854,5.74588235 L426.119476,5.74588235 Z M423.095131,11.8164706 C423.095131,9.75529412 421.728839,8.37176471 419.949813,8.37176471 C418.16367,8.4 416.875655,9.77647059 416.875655,11.8164706 C416.875655,13.8564706 418.185019,15.2611765 419.999625,15.2611765 C421.735955,15.2541176 423.095131,13.9270588 423.095131,11.8164706 Z" id="Shape" fill-rule="nonzero"></path>
                    <path d="M440.607865,10.9058824 L440.607865,18.0352941 L437.51236,18.0352941 L437.51236,11.5482353 C437.51236,9.55764706 436.473408,8.32941176 434.957678,8.32941176 C433.299625,8.32941176 432.132584,9.82588235 432.132584,11.5976471 L432.132584,18.0352941 L429.058427,18.0352941 L429.058427,5.74588235 L432.132584,5.74588235 L432.132584,7.29176471 C432.972285,6.13411765 434.338577,5.4 435.925468,5.4 C438.729213,5.4 440.607865,7.75764706 440.607865,10.9058824 Z" id="Path"></path>
                    <path d="M449.773408,2.23058824 C449.773408,1.17176471 450.662921,0.388235294 451.730337,0.388235294 C452.769288,0.388235294 453.637453,1.17176471 453.637453,2.23058824 C453.637453,3.28941176 452.769288,4.07294118 451.730337,4.07294118 C450.670037,4.07294118 449.773408,3.28235294 449.773408,2.23058824 Z M453.29588,5.74588235 L453.29588,18.0352941 L450.122097,18.0352941 L450.122097,5.74588235 L453.29588,5.74588235 Z" id="Shape" fill-rule="nonzero"></path>
                    <path d="M468.182772,10.9058824 L468.182772,18.0352941 L465.087266,18.0352941 L465.087266,11.5482353 C465.087266,9.55764706 464.048315,8.32941176 462.532584,8.32941176 C460.874532,8.32941176 459.707491,9.82588235 459.707491,11.5976471 L459.707491,18.0352941 L456.633333,18.0352941 L456.633333,5.74588235 L459.707491,5.74588235 L459.707491,7.29176471 C460.547191,6.13411765 461.913483,5.4 463.500375,5.4 C466.30412,5.4 468.182772,7.75764706 468.182772,10.9058824 Z" id="Path"></path>
                    <path d="M485.745318,4.04470588 C482.550187,4.04470588 480.144944,6.50117647 480.144944,9.67058824 C480.144944,12.84 482.550187,15.3247059 485.745318,15.3247059 C487.801873,15.3247059 489.588015,14.2658824 490.548689,12.5011765 L493.302622,14.1247059 C491.765543,16.7294118 488.890637,18.4235294 485.745318,18.4235294 C480.813858,18.4235294 476.9,14.5411765 476.9,9.67058824 C476.9,4.8 480.813858,0.917647059 485.745318,0.917647059 C488.919101,0.917647059 491.765543,2.59058824 493.302622,5.21647059 L490.548689,6.84 C489.588015,5.08235294 487.801873,4.04470588 485.745318,4.04470588 Z" id="Path"></path>
                    <path d="M506.979775,10.9058824 L506.979775,18.0352941 L503.88427,18.0352941 L503.88427,11.5482353 C503.88427,9.55764706 502.845318,8.32941176 501.329588,8.32941176 C499.671536,8.32941176 498.504494,9.82588235 498.504494,11.5976471 L498.504494,18.0352941 L495.430337,18.0352941 L495.430337,0.832941176 L498.504494,0.832941176 L498.504494,7.29882353 C499.344195,6.14117647 500.710487,5.40705882 502.297378,5.40705882 C505.094007,5.4 506.979775,7.75764706 506.979775,10.9058824 Z" id="Path"></path>
                    <path d="M509.854682,2.23058824 C509.854682,1.17176471 510.744195,0.388235294 511.81161,0.388235294 C512.850562,0.388235294 513.718727,1.17176471 513.718727,2.23058824 C513.718727,3.28941176 512.850562,4.07294118 511.81161,4.07294118 C510.744195,4.07294118 509.854682,3.28235294 509.854682,2.23058824 Z M513.370037,5.74588235 L513.370037,18.0352941 L510.196255,18.0352941 L510.196255,5.74588235 L513.370037,5.74588235 Z" id="Shape" fill-rule="nonzero"></path>
                    <path d="M527.986517,14.8164706 C526.919101,16.9270588 524.741573,18.3529412 522.215356,18.3529412 C518.57191,18.3529412 515.775281,15.48 515.775281,11.8870588 C515.775281,8.27294118 518.57191,5.4 522.215356,5.4 C524.720225,5.4 526.897753,6.82588235 527.965169,8.91529412 L525.168539,10.1435294 C524.570787,9.03529412 523.460674,8.37176471 522.222472,8.37176471 C520.315356,8.37176471 518.927715,9.89647059 518.927715,11.8870588 C518.927715,13.8564706 520.315356,15.3741176 522.222472,15.3741176 C523.460674,15.3741176 524.577903,14.6894118 525.168539,13.5811765 L527.986517,14.8164706 Z" id="Path"></path>
                    <path d="M540.055431,10.5882353 L540.055431,18.0352941 L537.031086,18.0352941 L537.031086,16.6094118 C536.113109,17.5905882 534.675655,18.3317647 533.088764,18.3529412 C530.982397,18.3529412 529.125094,16.9764706 529.125094,14.6188235 C529.125094,12.3811765 530.81161,11.1035294 533.309363,10.6094118 L536.952809,9.91764706 C536.703745,8.88705882 535.913858,8.09647059 534.725468,8.09647059 C533.537079,8.09647059 532.41985,8.83058824 531.750936,9.76941176 L529.473783,8.12470588 C530.640824,6.50117647 532.697378,5.42117647 534.725468,5.42117647 C537.771161,5.42117647 540.055431,7.51058824 540.055431,10.5882353 Z M537.031086,12.8964706 L537.031086,12.3317647 L533.857303,12.9458824 C532.789888,13.1929412 532.149438,13.7294118 532.149438,14.4423529 C532.149438,15.1764706 532.818352,15.7482353 533.907116,15.7482353 C535.54382,15.7482353 537.031086,14.52 537.031086,12.8964706 Z" id="Shape" fill-rule="nonzero"></path>
                    <path d="M554.593633,5.74588235 L554.593633,17.1741176 C554.593633,20.8588235 551.818352,23.3223529 548.174906,23.3223529 C546.068539,23.3223529 544.11161,22.3623529 542.72397,20.8376471 L544.88015,18.9176471 C545.769663,19.8988235 546.915356,20.5411765 548.174906,20.5411765 C550.210112,20.5411765 551.498127,19.2352941 551.498127,17.1247059 L551.498127,16.4117647 C550.758052,17.4423529 549.491386,18.2047059 547.804869,18.2047059 C544.709363,18.2047059 542.232959,15.6494118 542.204494,11.8870588 C542.204494,8.17411765 544.631086,5.42117647 547.826217,5.42117647 C549.512734,5.42117647 550.750936,6.18352941 551.491011,7.24235294 L551.491011,5.74588235 L554.593633,5.74588235 Z M551.576404,11.8164706 C551.576404,9.75529412 550.210112,8.37176471 548.431086,8.37176471 C546.644944,8.4 545.356929,9.77647059 545.356929,11.8164706 C545.356929,13.8564706 546.666292,15.2611765 548.480899,15.2611765 C550.210112,15.2541176 551.576404,13.9270588 551.576404,11.8164706 Z" id="Shape" fill-rule="nonzero"></path>
                    <path d="M556.849438,11.8870588 C556.849438,8.30117647 559.745693,5.42117647 563.389139,5.42117647 C566.982772,5.42117647 569.879026,8.29411765 569.879026,11.8870588 C569.879026,15.48 566.982772,18.3529412 563.389139,18.3529412 C559.745693,18.3529412 556.849438,15.48 556.849438,11.8870588 Z M566.733708,11.8870588 C566.733708,9.89647059 565.274906,8.4 563.389139,8.4 C561.453558,8.4 559.994757,9.89647059 559.994757,11.8870588 C559.994757,13.8776471 561.453558,15.3741176 563.389139,15.3741176 C565.246442,15.3811765 566.733708,13.8776471 566.733708,11.8870588 Z" id="Shape" fill-rule="nonzero"></path>
                </g>
            </g>
        </g>
    </g>
</svg>